<mxfile host="app.diagrams.net" agent="Mozilla/5.0 (Windows NT 10.0; Win64; x64) AppleWebKit/537.36 (KHTML, like Gecko) Chrome/140.0.0.0 Safari/537.36" version="28.2.4">
  <diagram name="Desafio EC2 AWS" id="EryO6p8UUkIrLrNliE-y">
    <mxGraphModel dx="1281" dy="1354" grid="1" gridSize="10" guides="1" tooltips="1" connect="1" arrows="1" fold="1" page="1" pageScale="1" pageWidth="1169" pageHeight="827" math="0" shadow="0">
      <root>
        <mxCell id="0" />
        <mxCell id="1" parent="0" />
        <mxCell id="ELyNzG6_73ncgbiz8mdH-2" value="" style="ellipse;shape=cloud;lilacSpace=wrap;html=1;fillColor=#E5CCFF;" vertex="1" parent="1">
          <mxGeometry x="230" y="-50" width="760" height="480" as="geometry" />
        </mxCell>
        <mxCell id="6baNHoPcfQzVkEODDTib-1" parent="1" edge="1">
          <mxGeometry relative="1" as="geometry">
            <mxPoint x="320" y="110" as="sourcePoint" />
            <mxPoint x="380" y="110" as="targetPoint" />
          </mxGeometry>
        </mxCell>
        <mxCell id="6baNHoPcfQzVkEODDTib-2" value="User" style="shape=umlActor;verticalLabelPosition=bottom;verticalAlign=top;html=1;outlineConnect=0;fillColor=#FFE6CC;" parent="1" vertex="1">
          <mxGeometry x="150" y="90" width="30" height="60" as="geometry" />
        </mxCell>
        <mxCell id="6baNHoPcfQzVkEODDTib-3" style="edgeStyle=orthogonalEdgeStyle;rounded=1;orthogonalLoop=1;jettySize=auto;html=1;entryX=0.013;entryY=0.492;entryDx=0;entryDy=0;entryPerimeter=0;curved=0;dashed=1;flowAnimation=1;" parent="1" source="6baNHoPcfQzVkEODDTib-2" edge="1">
          <mxGeometry relative="1" as="geometry">
            <mxPoint x="320.78" y="119.623458190301" as="targetPoint" />
          </mxGeometry>
        </mxCell>
        <mxCell id="6baNHoPcfQzVkEODDTib-4" value="Upload de&lt;div&gt;Arquivo&lt;/div&gt;" style="edgeLabel;html=1;align=center;verticalAlign=middle;resizable=0;points=[];" parent="6baNHoPcfQzVkEODDTib-3" connectable="0" vertex="1">
          <mxGeometry x="-0.2719" y="2" relative="1" as="geometry">
            <mxPoint x="19" y="2" as="offset" />
          </mxGeometry>
        </mxCell>
        <mxCell id="6baNHoPcfQzVkEODDTib-5" value="S3&lt;div&gt;&lt;br&gt;&lt;/div&gt;" style="outlineConnect=0;dashed=0;verticalLabelPosition=bottom;verticalAlign=top;align=center;html=1;shape=mxgraph.aws3.s3;fillColor=#E05243;gradientColor=none;" parent="1" vertex="1">
          <mxGeometry x="320" y="85" width="60" height="70" as="geometry" />
        </mxCell>
        <mxCell id="6baNHoPcfQzVkEODDTib-6" value="Lambda" style="outlineConnect=0;dashed=0;verticalLabelPosition=bottom;verticalAlign=top;align=center;html=1;shape=mxgraph.aws3.lambda_function;fillColor=#F58534;gradientColor=none;" parent="1" vertex="1">
          <mxGeometry x="510" y="90" width="60" height="60" as="geometry" />
        </mxCell>
        <mxCell id="6baNHoPcfQzVkEODDTib-7" style="edgeStyle=orthogonalEdgeStyle;rounded=1;orthogonalLoop=1;jettySize=auto;html=1;entryX=0;entryY=0.5;entryDx=0;entryDy=0;entryPerimeter=0;curved=0;dashed=1;flowAnimation=1;" parent="1" source="6baNHoPcfQzVkEODDTib-5" target="6baNHoPcfQzVkEODDTib-6" edge="1">
          <mxGeometry relative="1" as="geometry" />
        </mxCell>
        <mxCell id="6baNHoPcfQzVkEODDTib-8" value="Trigger" style="edgeLabel;html=1;align=center;verticalAlign=middle;resizable=0;points=[];fillColor=#E5CCFF;" parent="6baNHoPcfQzVkEODDTib-7" connectable="0" vertex="1">
          <mxGeometry x="-0.2862" y="-1" relative="1" as="geometry">
            <mxPoint x="14" y="-1" as="offset" />
          </mxGeometry>
        </mxCell>
        <mxCell id="6baNHoPcfQzVkEODDTib-9" style="edgeStyle=orthogonalEdgeStyle;rounded=1;orthogonalLoop=1;jettySize=auto;html=1;entryX=0;entryY=0.5;entryDx=0;entryDy=0;entryPerimeter=0;curved=0;dashed=1;flowAnimation=1;" parent="1" source="6baNHoPcfQzVkEODDTib-6" edge="1">
          <mxGeometry relative="1" as="geometry">
            <mxPoint x="670" y="120" as="targetPoint" />
          </mxGeometry>
        </mxCell>
        <mxCell id="6baNHoPcfQzVkEODDTib-11" style="edgeStyle=orthogonalEdgeStyle;rounded=1;orthogonalLoop=1;jettySize=auto;html=1;entryX=0.5;entryY=0;entryDx=0;entryDy=0;entryPerimeter=0;curved=0;dashed=1;flowAnimation=1;" parent="1" target="6baNHoPcfQzVkEODDTib-10" edge="1">
          <mxGeometry relative="1" as="geometry">
            <mxPoint x="700" y="170" as="sourcePoint" />
          </mxGeometry>
        </mxCell>
        <mxCell id="6baNHoPcfQzVkEODDTib-12" value="EBS" style="outlineConnect=0;dashed=0;verticalLabelPosition=bottom;verticalAlign=top;align=center;html=1;shape=mxgraph.aws3.volume;fillColor=#E05243;gradientColor=none;" parent="1" vertex="1">
          <mxGeometry x="840" y="232.5" width="50" height="65" as="geometry" />
        </mxCell>
        <mxCell id="6baNHoPcfQzVkEODDTib-13" style="edgeStyle=orthogonalEdgeStyle;rounded=1;orthogonalLoop=1;jettySize=auto;html=1;entryX=0;entryY=0.5;entryDx=0;entryDy=0;entryPerimeter=0;curved=0;dashed=1;flowAnimation=1;" parent="1" source="6baNHoPcfQzVkEODDTib-10" target="6baNHoPcfQzVkEODDTib-12" edge="1">
          <mxGeometry relative="1" as="geometry" />
        </mxCell>
        <mxCell id="6baNHoPcfQzVkEODDTib-14" value="AWS Step&lt;div&gt;Functions&lt;/div&gt;" style="sketch=0;points=[[0,0,0],[0.25,0,0],[0.5,0,0],[0.75,0,0],[1,0,0],[0,1,0],[0.25,1,0],[0.5,1,0],[0.75,1,0],[1,1,0],[0,0.25,0],[0,0.5,0],[0,0.75,0],[1,0.25,0],[1,0.5,0],[1,0.75,0]];outlineConnect=0;fontColor=#232F3E;fillColor=#E7157B;strokeColor=#ffffff;dashed=0;verticalLabelPosition=bottom;verticalAlign=top;align=center;html=1;fontSize=12;fontStyle=0;aspect=fixed;shape=mxgraph.aws4.resourceIcon;resIcon=mxgraph.aws4.step_functions;" parent="1" vertex="1">
          <mxGeometry x="480" y="235" width="60" height="60" as="geometry" />
        </mxCell>
        <mxCell id="6baNHoPcfQzVkEODDTib-15" style="edgeStyle=orthogonalEdgeStyle;rounded=1;orthogonalLoop=1;jettySize=auto;html=1;entryX=1;entryY=0.5;entryDx=0;entryDy=0;entryPerimeter=0;curved=0;dashed=1;flowAnimation=1;" parent="1" source="6baNHoPcfQzVkEODDTib-10" target="6baNHoPcfQzVkEODDTib-14" edge="1">
          <mxGeometry relative="1" as="geometry" />
        </mxCell>
        <mxCell id="ELyNzG6_73ncgbiz8mdH-1" value="RDS" style="outlineConnect=0;dashed=0;verticalLabelPosition=bottom;verticalAlign=top;align=center;html=1;shape=mxgraph.aws3.rds;fillColor=#2E73B8;gradientColor=none;" vertex="1" parent="1">
          <mxGeometry x="670" y="85" width="60" height="65" as="geometry" />
        </mxCell>
        <mxCell id="6baNHoPcfQzVkEODDTib-10" value="EC2" style="outlineConnect=0;dashed=0;verticalLabelPosition=bottom;verticalAlign=top;align=center;html=1;shape=mxgraph.aws3.ec2;fillColor=#F58534;gradientColor=none;" parent="1" vertex="1">
          <mxGeometry x="670" y="230" width="60" height="70" as="geometry" />
        </mxCell>
      </root>
    </mxGraphModel>
  </diagram>
</mxfile>
